<mxfile host="app.diagrams.net" modified="2023-02-06T22:25:59.415Z" agent="5.0 (Windows NT 10.0; Win64; x64) AppleWebKit/537.36 (KHTML, like Gecko) Chrome/109.0.0.0 Safari/537.36" etag="HrPlRtbsfh0lwU2UNw-i" version="20.8.17" type="github">
  <diagram name="PÃ¡gina-1" id="vQJPx2-dVvzWiImb6vRB">
    <mxGraphModel dx="1050" dy="573" grid="1" gridSize="10" guides="1" tooltips="1" connect="1" arrows="1" fold="1" page="1" pageScale="1" pageWidth="827" pageHeight="1169" math="0" shadow="0">
      <root>
        <mxCell id="0" />
        <mxCell id="1" parent="0" />
        <mxCell id="FkuD2Frhx2kdSobtNOFM-1" value="&lt;font style=&quot;font-size: 18px;&quot;&gt;Cliente&lt;/font&gt;" style="rounded=1;whiteSpace=wrap;html=1;" vertex="1" parent="1">
          <mxGeometry x="100" y="170" width="120" height="100" as="geometry" />
        </mxCell>
        <mxCell id="FkuD2Frhx2kdSobtNOFM-2" value="&lt;font style=&quot;font-size: 18px;&quot;&gt;Atendente&lt;/font&gt;" style="rounded=1;whiteSpace=wrap;html=1;" vertex="1" parent="1">
          <mxGeometry x="360" y="170" width="120" height="100" as="geometry" />
        </mxCell>
        <mxCell id="FkuD2Frhx2kdSobtNOFM-3" value="&lt;font style=&quot;font-size: 18px;&quot;&gt;Atendimento&lt;/font&gt;" style="rounded=1;whiteSpace=wrap;html=1;" vertex="1" parent="1">
          <mxGeometry x="640" y="170" width="120" height="100" as="geometry" />
        </mxCell>
      </root>
    </mxGraphModel>
  </diagram>
</mxfile>
